WorkSans-Bold.ufo
<glyph name="exclam" format="1">
  <advance width="321"/>
  <unicode hex="0021"/>
  <outline>
    <contour>
      <point x="40" y="660" type="line"/>
      <point x="40" y="496" type="line"/>
      <point x="64" y="220" type="line"/>
      <point x="256" y="220" type="line"/>
      <point x="280" y="496" type="line"/>
      <point x="280" y="660" type="line"/>
    </contour>
    <component base="period" xOffset="26" xScale="0.95" yScale="0.9"/>
  </outline>
</glyph>
<glyph name="percent" format="1">
  <advance width="992"/>
  <unicode hex="0025"/>
  <outline>
    <contour>
      <point x="642" y="374"/>
      <point x="560" y="298"/>
      <point x="560" y="182" type="curve" smooth="yes"/>
      <point x="560" y="66"/>
      <point x="642" y="-10"/>
      <point x="764" y="-10" type="curve" smooth="yes"/>
      <point x="886" y="-10"/>
      <point x="968" y="66"/>
      <point x="968" y="182" type="curve" smooth="yes"/>
      <point x="968" y="298"/>
      <point x="886" y="374"/>
      <point x="764" y="374" type="curve" smooth="yes"/>
    </contour>
    <contour>
      <point x="106" y="670"/>
      <point x="24" y="594"/>
      <point x="24" y="478" type="curve" smooth="yes"/>
      <point x="24" y="362"/>
      <point x="106" y="286"/>
      <point x="228" y="286" type="curve" smooth="yes"/>
      <point x="350" y="286"/>
      <point x="432" y="362"/>
      <point x="432" y="478" type="curve" smooth="yes"/>
      <point x="432" y="594"/>
      <point x="350" y="670"/>
      <point x="228" y="670" type="curve" smooth="yes"/>
    </contour>
    <contour>
      <point x="254" y="522"/>
      <point x="269" y="506"/>
      <point x="269" y="478" type="curve" smooth="yes"/>
      <point x="269" y="450"/>
      <point x="254" y="434"/>
      <point x="228" y="434" type="curve" smooth="yes"/>
      <point x="202" y="434"/>
      <point x="187" y="450"/>
      <point x="187" y="478" type="curve" smooth="yes"/>
      <point x="187" y="506"/>
      <point x="202" y="522"/>
      <point x="228" y="522" type="curve" smooth="yes"/>
    </contour>
    <contour>
      <point x="790" y="226"/>
      <point x="805" y="210"/>
      <point x="805" y="182" type="curve" smooth="yes"/>
      <point x="805" y="154"/>
      <point x="790" y="138"/>
      <point x="764" y="138" type="curve" smooth="yes"/>
      <point x="738" y="138"/>
      <point x="723" y="154"/>
      <point x="723" y="182" type="curve" smooth="yes"/>
      <point x="723" y="210"/>
      <point x="738" y="226"/>
      <point x="764" y="226" type="curve" smooth="yes"/>
    </contour>
    <contour>
      <point x="337" y="0" type="line"/>
      <point x="823" y="661" type="line"/>
      <point x="657" y="661" type="line"/>
      <point x="171" y="0" type="line"/>
    </contour>
  </outline>
</glyph>
<glyph name="quotesingle" format="1">
  <advance width="249"/>
  <unicode hex="0027"/>
  <outline>
    <contour>
      <point x="50" y="670" type="line"/>
      <point x="50" y="403" type="line"/>
      <point x="186" y="403" type="line"/>
      <point x="218" y="670" type="line"/>
    </contour>
  </outline>
</glyph>
<glyph name="period" format="1">
  <advance width="306"/>
  <unicode hex="002E"/>
  <outline>
    <contour>
      <point x="75" y="206"/>
      <point x="30" y="167"/>
      <point x="30" y="99" type="curve" smooth="yes"/>
      <point x="30" y="31"/>
      <point x="75" y="-8"/>
      <point x="153" y="-8" type="curve" smooth="yes"/>
      <point x="231" y="-8"/>
      <point x="276" y="31"/>
      <point x="276" y="99" type="curve" smooth="yes"/>
      <point x="276" y="167"/>
      <point x="231" y="206"/>
      <point x="153" y="206" type="curve" smooth="yes"/>
    </contour>
  </outline>
</glyph>
<glyph name="one" format="1">
  <advance width="469"/>
  <unicode hex="0031"/>
  <outline>
    <contour>
      <point x="418" y="660" type="line"/>
      <point x="232" y="660" type="line"/>
      <point x="185" y="506" type="line"/>
      <point x="185" y="0" type="line"/>
      <point x="418" y="0" type="line"/>
      <point x="418" y="506" type="line"/>
    </contour>
    <contour>
      <point x="33" y="347" type="line"/>
      <point x="155" y="366"/>
      <point x="298" y="473"/>
      <point x="337" y="560" type="curve"/>
      <point x="232" y="660" type="line"/>
      <point x="200" y="613"/>
      <point x="118" y="568"/>
      <point x="33" y="554" type="curve"/>
    </contour>
  </outline>
</glyph>
<glyph name="eight" format="1">
  <advance width="640"/>
  <unicode hex="0038"/>
  <outline>
    <contour>
      <point x="133" y="350"/>
      <point x="37" y="293"/>
      <point x="37" y="183" type="curve" smooth="yes"/>
      <point x="37" y="60"/>
      <point x="141" y="-10"/>
      <point x="320" y="-10" type="curve" smooth="yes"/>
      <point x="499" y="-10"/>
      <point x="603" y="60"/>
      <point x="603" y="183" type="curve" smooth="yes"/>
      <point x="603" y="293"/>
      <point x="507" y="350"/>
      <point x="320" y="350" type="curve" smooth="yes"/>
    </contour>
    <contour>
      <point x="360" y="255"/>
      <point x="382" y="235"/>
      <point x="382" y="199" type="curve" smooth="yes"/>
      <point x="382" y="164"/>
      <point x="360" y="143"/>
      <point x="320" y="143" type="curve" smooth="yes"/>
      <point x="281" y="143"/>
      <point x="259" y="164"/>
      <point x="259" y="199" type="curve" smooth="yes"/>
      <point x="259" y="235"/>
      <point x="281" y="255"/>
      <point x="320" y="255" type="curve" smooth="yes"/>
    </contour>
    <contour>
      <point x="359" y="518"/>
      <point x="380" y="498"/>
      <point x="380" y="462" type="curve" smooth="yes"/>
      <point x="380" y="427"/>
      <point x="359" y="407"/>
      <point x="320" y="407" type="curve" smooth="yes"/>
      <point x="281" y="407"/>
      <point x="260" y="427"/>
      <point x="260" y="462" type="curve" smooth="yes"/>
      <point x="260" y="498"/>
      <point x="281" y="518"/>
      <point x="320" y="518" type="curve" smooth="yes"/>
    </contour>
    <contour>
      <point x="150" y="667"/>
      <point x="48" y="594"/>
      <point x="48" y="474" type="curve" smooth="yes"/>
      <point x="48" y="367"/>
      <point x="147" y="306"/>
      <point x="320" y="306" type="curve" smooth="yes"/>
      <point x="493" y="306"/>
      <point x="592" y="367"/>
      <point x="592" y="474" type="curve" smooth="yes"/>
      <point x="592" y="594"/>
      <point x="490" y="667"/>
      <point x="320" y="667" type="curve" smooth="yes"/>
    </contour>
  </outline>
</glyph>
<glyph name="at" format="1">
  <advance width="920"/>
  <unicode hex="0040"/>
  <outline>
    <contour>
      <point x="230" y="660"/>
      <point x="38" y="490"/>
      <point x="38" y="223" type="curve" smooth="yes"/>
      <point x="38" y="-37"/>
      <point x="213" y="-176"/>
      <point x="435" y="-176" type="curve" smooth="yes"/>
      <point x="565" y="-176"/>
      <point x="623" y="-150"/>
      <point x="680" y="-110" type="curve"/>
      <point x="632" y="-41" type="line"/>
      <point x="591" y="-73"/>
      <point x="546" y="-92"/>
      <point x="440" y="-92" type="curve" smooth="yes"/>
      <point x="288" y="-92"/>
      <point x="135" y="10"/>
      <point x="135" y="223" type="curve" smooth="yes"/>
      <point x="135" y="447"/>
      <point x="281" y="574"/>
      <point x="484" y="574" type="curve" smooth="yes"/>
      <point x="663" y="574"/>
      <point x="793" y="481"/>
      <point x="793" y="260" type="curve" smooth="yes"/>
      <point x="793" y="159"/>
      <point x="752" y="109"/>
      <point x="709" y="109" type="curve" smooth="yes"/>
      <point x="666" y="109"/>
      <point x="655" y="128"/>
      <point x="665" y="187" type="curve" smooth="yes"/>
      <point x="713" y="457" type="line"/>
      <point x="544" y="457" type="line"/>
      <point x="523" y="398" type="line"/>
      <point x="520" y="423"/>
      <point x="497" y="469"/>
      <point x="436" y="469" type="curve" smooth="yes"/>
      <point x="305" y="469"/>
      <point x="206" y="379"/>
      <point x="206" y="183" type="curve" smooth="yes"/>
      <point x="206" y="84"/>
      <point x="259" y="4"/>
      <point x="362" y="4" type="curve" smooth="yes"/>
      <point x="421" y="4"/>
      <point x="464" y="29"/>
      <point x="500" y="84" type="curve"/>
      <point x="530" y="28"/>
      <point x="586" y="4"/>
      <point x="655" y="4" type="curve" smooth="yes"/>
      <point x="760" y="4"/>
      <point x="881" y="67"/>
      <point x="881" y="260" type="curve" smooth="yes"/>
      <point x="881" y="530"/>
      <point x="711" y="660"/>
      <point x="484" y="660" type="curve" smooth="yes"/>
    </contour>
    <contour>
      <point x="480" y="325"/>
      <point x="486" y="316"/>
      <point x="482" y="287" type="curve" smooth="yes"/>
      <point x="467" y="185" type="line" smooth="yes"/>
      <point x="464" y="166"/>
      <point x="449" y="157"/>
      <point x="434" y="157" type="curve" smooth="yes"/>
      <point x="412" y="157"/>
      <point x="401" y="177"/>
      <point x="401" y="214" type="curve" smooth="yes"/>
      <point x="401" y="282"/>
      <point x="434" y="325"/>
      <point x="463" y="325" type="curve" smooth="yes"/>
    </contour>
  </outline>
</glyph>
<glyph name="J" format="1">
  <advance width="672"/>
  <unicode hex="004A"/>
  <outline>
    <contour>
      <point x="389" y="660" type="line"/>
      <point x="389" y="289" type="line" smooth="yes"/>
      <point x="389" y="201"/>
      <point x="368" y="165"/>
      <point x="323" y="165" type="curve" smooth="yes"/>
      <point x="268" y="165"/>
      <point x="245" y="204"/>
      <point x="262" y="329" type="curve"/>
      <point x="29" y="290" type="line"/>
      <point x="-2" y="118"/>
      <point x="78" y="-10"/>
      <point x="308" y="-10" type="curve" smooth="yes"/>
      <point x="509" y="-10"/>
      <point x="618" y="89"/>
      <point x="619" y="255" type="curve" smooth="yes"/>
      <point x="622" y="660" type="line"/>
    </contour>
  </outline>
</glyph>
<glyph name="P" format="1">
  <advance width="706"/>
  <unicode hex="0050"/>
  <outline>
    <contour>
      <point x="218" y="660" type="line"/>
      <point x="218" y="494" type="line"/>
      <point x="362" y="494" type="line" smooth="yes"/>
      <point x="419" y="494"/>
      <point x="444" y="475"/>
      <point x="444" y="432" type="curve" smooth="yes"/>
      <point x="444" y="389"/>
      <point x="419" y="370"/>
      <point x="362" y="370" type="curve" smooth="yes"/>
      <point x="218" y="370" type="line"/>
      <point x="218" y="210" type="line"/>
      <point x="400" y="210" type="line" smooth="yes"/>
      <point x="584" y="210"/>
      <point x="677" y="287"/>
      <point x="677" y="429" type="curve" smooth="yes"/>
      <point x="677" y="583"/>
      <point x="584" y="660"/>
      <point x="400" y="660" type="curve" smooth="yes"/>
    </contour>
    <contour>
      <point x="50" y="660" type="line"/>
      <point x="50" y="0" type="line"/>
      <point x="283" y="0" type="line"/>
      <point x="283" y="660" type="line"/>
    </contour>
  </outline>
</glyph>
<glyph name="R" format="1">
  <advance width="705"/>
  <unicode hex="0052"/>
  <outline>
    <contour>
      <point x="208" y="660" type="line"/>
      <point x="208" y="494" type="line"/>
      <point x="361" y="494" type="line" smooth="yes"/>
      <point x="420" y="494"/>
      <point x="442" y="477"/>
      <point x="442" y="433" type="curve" smooth="yes"/>
      <point x="442" y="388"/>
      <point x="420" y="372"/>
      <point x="361" y="372" type="curve" smooth="yes"/>
      <point x="208" y="372" type="line"/>
      <point x="208" y="219" type="line"/>
      <point x="408" y="219" type="line" smooth="yes"/>
      <point x="584" y="219"/>
      <point x="675" y="293"/>
      <point x="675" y="439" type="curve" smooth="yes"/>
      <point x="675" y="586"/>
      <point x="584" y="660"/>
      <point x="408" y="660" type="curve" smooth="yes"/>
    </contour>
    <contour>
      <point x="50" y="660" type="line"/>
      <point x="50" y="0" type="line"/>
      <point x="278" y="0" type="line"/>
      <point x="278" y="660" type="line"/>
    </contour>
    <contour>
      <point x="305" y="289" type="line"/>
      <point x="459" y="0" type="line"/>
      <point x="712" y="0" type="line"/>
      <point x="506" y="323" type="line"/>
    </contour>
    <contour>
      <point x="334" y="660" type="move" name="top"/>
    </contour>
    <contour>
      <point x="362" y="0" type="move" name="bottom"/>
    </contour>
  </outline>
</glyph>
<glyph name="S" format="1">
  <advance width="646"/>
  <unicode hex="0053"/>
  <outline>
    <contour>
      <point x="138" y="670"/>
      <point x="28" y="578"/>
      <point x="28" y="443" type="curve" smooth="yes"/>
      <point x="28" y="192"/>
      <point x="390" y="261"/>
      <point x="390" y="191" type="curve" smooth="yes"/>
      <point x="390" y="174"/>
      <point x="373" y="161"/>
      <point x="317" y="161" type="curve" smooth="yes"/>
      <point x="231" y="161"/>
      <point x="166" y="186"/>
      <point x="112" y="244" type="curve"/>
      <point x="10" y="83" type="line"/>
      <point x="91" y="24"/>
      <point x="167" y="-10"/>
      <point x="334" y="-10" type="curve" smooth="yes"/>
      <point x="496" y="-10"/>
      <point x="629" y="63"/>
      <point x="629" y="203" type="curve" smooth="yes"/>
      <point x="629" y="459"/>
      <point x="267" y="395"/>
      <point x="267" y="461" type="curve" smooth="yes"/>
      <point x="267" y="483"/>
      <point x="297" y="499"/>
      <point x="344" y="499" type="curve" smooth="yes"/>
      <point x="419" y="499"/>
      <point x="479" y="477"/>
      <point x="535" y="415" type="curve"/>
      <point x="641" y="565" type="line"/>
      <point x="548" y="646"/>
      <point x="463" y="670"/>
      <point x="337" y="670" type="curve" smooth="yes"/>
    </contour>
    <contour>
      <point x="331" y="660" type="move" name="top"/>
    </contour>
    <contour>
      <point x="332" y="0" type="move" name="bottom"/>
    </contour>
  </outline>
</glyph>
<glyph name="V" format="1">
  <advance width="707"/>
  <unicode hex="0056"/>
  <outline>
    <contour>
      <point x="481" y="660" type="line"/>
      <point x="388" y="297" type="line"/>
      <point x="358" y="170" type="line"/>
      <point x="326" y="299" type="line"/>
      <point x="235" y="660" type="line"/>
      <point x="-8" y="660" type="line"/>
      <point x="215" y="0" type="line"/>
      <point x="492" y="0" type="line"/>
      <point x="715" y="660" type="line"/>
    </contour>
  </outline>
</glyph>
<glyph name="asciicircum" format="1">
  <advance width="647"/>
  <unicode hex="005E"/>
  <outline>
    <contour>
      <point x="418" y="660" type="line"/>
      <point x="267" y="660" type="line"/>
      <point x="431" y="252" type="line"/>
      <point x="627" y="252" type="line"/>
    </contour>
    <contour>
      <point x="216" y="252" type="line"/>
      <point x="380" y="660" type="line"/>
      <point x="229" y="660" type="line"/>
      <point x="20" y="252" type="line"/>
    </contour>
  </outline>
</glyph>
<glyph name="grave" format="1">
  <advance width="500"/>
  <unicode hex="0060"/>
  <outline>
    <contour>
      <point x="68" y="730" type="line"/>
      <point x="171" y="553" type="line"/>
      <point x="333" y="553" type="line"/>
      <point x="273" y="730" type="line"/>
    </contour>
    <contour>
      <point x="250" y="500" type="move" name="_top"/>
    </contour>
  </outline>
</glyph>
<glyph name="a" format="1">
  <advance width="588"/>
  <unicode hex="0061"/>
  <outline>
    <contour>
      <point x="111" y="510"/>
      <point x="28" y="441"/>
      <point x="18" y="337" type="curve"/>
      <point x="199" y="305" type="line"/>
      <point x="211" y="340"/>
      <point x="227" y="361"/>
      <point x="266" y="361" type="curve" smooth="yes"/>
      <point x="298" y="361"/>
      <point x="310" y="343"/>
      <point x="310" y="312" type="curve" smooth="yes"/>
      <point x="310" y="112" type="line"/>
      <point x="342" y="117" type="line"/>
      <point x="342" y="32"/>
      <point x="407" y="-10"/>
      <point x="505" y="-10" type="curve" smooth="yes"/>
      <point x="530" y="-10"/>
      <point x="555" y="-4"/>
      <point x="579" y="10" type="curve"/>
      <point x="597" y="127" type="line"/>
      <point x="591" y="124"/>
      <point x="583" y="123"/>
      <point x="572" y="123" type="curve" smooth="yes"/>
      <point x="550" y="123"/>
      <point x="538" y="136"/>
      <point x="538" y="164" type="curve" smooth="yes"/>
      <point x="538" y="304" type="line" smooth="yes"/>
      <point x="538" y="441"/>
      <point x="457" y="510"/>
      <point x="278" y="510" type="curve" smooth="yes"/>
    </contour>
    <contour>
      <point x="211" y="270" type="line" smooth="yes"/>
      <point x="69" y="239"/>
      <point x="16" y="192"/>
      <point x="16" y="109" type="curve" smooth="yes"/>
      <point x="16" y="33"/>
      <point x="65" y="-10"/>
      <point x="170" y="-10" type="curve" smooth="yes"/>
      <point x="312" y="-10"/>
      <point x="372" y="74"/>
      <point x="372" y="164" type="curve"/>
      <point x="310" y="164" type="line"/>
      <point x="310" y="131"/>
      <point x="291" y="115"/>
      <point x="267" y="115" type="curve" smooth="yes"/>
      <point x="248" y="115"/>
      <point x="232" y="126"/>
      <point x="232" y="150" type="curve" smooth="yes"/>
      <point x="232" y="175"/>
      <point x="249" y="194"/>
      <point x="277" y="202" type="curve" smooth="yes"/>
      <point x="360" y="226" type="line"/>
      <point x="342" y="299" type="line"/>
    </contour>
    <contour>
      <point x="579" y="10" type="move" name="ogonek"/>
    </contour>
    <contour>
      <point x="277" y="500" type="move" name="top"/>
    </contour>
  </outline>
</glyph>
<glyph name="i" format="1">
  <advance width="308"/>
  <unicode hex="0069"/>
  <outline>
    <contour>
      <point x="245" y="532"/>
      <point x="279" y="558"/>
      <point x="279" y="628" type="curve" smooth="yes"/>
      <point x="279" y="698"/>
      <point x="245" y="724"/>
      <point x="154" y="724" type="curve" smooth="yes"/>
      <point x="63" y="724"/>
      <point x="29" y="698"/>
      <point x="29" y="628" type="curve" smooth="yes"/>
      <point x="29" y="558"/>
      <point x="63" y="532"/>
      <point x="154" y="532" type="curve" smooth="yes"/>
    </contour>
    <component base="dotlessi"/>
    <contour>
      <point x="269" y="0" type="move" name="ogonek"/>
    </contour>
    <contour>
      <point x="154" y="500" type="move" name="top"/>
    </contour>
  </outline>
</glyph>
<glyph name="l" format="1">
  <advance width="341"/>
  <unicode hex="006C"/>
  <outline>
    <contour>
      <point x="39" y="700" type="line"/>
      <point x="39" y="164" type="line" smooth="yes"/>
      <point x="39" y="39"/>
      <point x="88" y="-10"/>
      <point x="212" y="-10" type="curve" smooth="yes"/>
      <point x="257" y="-10"/>
      <point x="311" y="3"/>
      <point x="336" y="22" type="curve"/>
      <point x="346" y="146" type="line"/>
      <point x="334" y="144"/>
      <point x="325" y="141"/>
      <point x="310" y="141" type="curve" smooth="yes"/>
      <point x="279" y="141"/>
      <point x="269" y="159"/>
      <point x="269" y="199" type="curve" smooth="yes"/>
      <point x="269" y="700" type="line"/>
    </contour>
    <contour>
      <point x="144" y="700" type="move" name="top"/>
    </contour>
    <contour>
      <point x="174" y="0" type="move" name="bottom"/>
    </contour>
    <contour>
      <point x="317" y="700" type="move" name="topright"/>
    </contour>
  </outline>
</glyph>
<glyph name="r" format="1">
  <advance width="444"/>
  <unicode hex="0072"/>
  <outline>
    <contour>
      <point x="282" y="510"/>
      <point x="236" y="394"/>
      <point x="236" y="240" type="curve"/>
      <point x="269" y="240" type="line"/>
      <point x="269" y="297"/>
      <point x="308" y="326"/>
      <point x="368" y="326" type="curve" smooth="yes"/>
      <point x="395" y="326"/>
      <point x="419" y="319"/>
      <point x="431" y="310" type="curve"/>
      <point x="450" y="498" type="line"/>
      <point x="443" y="503"/>
      <point x="428" y="510"/>
      <point x="398" y="510" type="curve" smooth="yes"/>
    </contour>
    <contour>
      <point x="39" y="500" type="line"/>
      <point x="39" y="281" type="line"/>
      <point x="39" y="0" type="line"/>
      <point x="269" y="0" type="line"/>
      <point x="269" y="281" type="line"/>
      <point x="254" y="307" type="line"/>
      <point x="246" y="500" type="line"/>
    </contour>
    <contour>
      <point x="241" y="500" type="move" name="top"/>
    </contour>
    <contour>
      <point x="142" y="0" type="move" name="bottom"/>
    </contour>
  </outline>
</glyph>
<glyph name="t" format="1">
  <advance width="445"/>
  <unicode hex="0074"/>
  <outline>
    <contour>
      <point x="78" y="606" type="line"/>
      <point x="78" y="168" type="line" smooth="yes"/>
      <point x="78" y="38"/>
      <point x="152" y="-10"/>
      <point x="292" y="-10" type="curve" smooth="yes"/>
      <point x="342" y="-10"/>
      <point x="407" y="3"/>
      <point x="441" y="24" type="curve"/>
      <point x="431" y="154" type="line"/>
      <point x="413" y="145"/>
      <point x="395" y="141"/>
      <point x="368" y="141" type="curve" smooth="yes"/>
      <point x="327" y="141"/>
      <point x="308" y="158"/>
      <point x="308" y="204" type="curve" smooth="yes"/>
      <point x="308" y="670" type="line"/>
    </contour>
    <contour>
      <point x="1" y="500" type="line"/>
      <point x="1" y="345" type="line"/>
      <point x="434" y="345" type="line"/>
      <point x="434" y="500" type="line"/>
    </contour>
    <contour>
      <point x="156" y="250" type="move" name="center"/>
    </contour>
    <contour>
      <point x="251" y="0" type="move" name="bottom"/>
    </contour>
    <contour>
      <point x="367" y="767" type="move" name="topright"/>
    </contour>
  </outline>
</glyph>
<glyph name="v" format="1">
  <advance width="588"/>
  <unicode hex="0076"/>
  <outline>
    <contour>
      <point x="360" y="500" type="line"/>
      <point x="267" y="0" type="line"/>
      <point x="437" y="0" type="line"/>
      <point x="598" y="500" type="line"/>
    </contour>
    <contour>
      <point x="-10" y="500" type="line"/>
      <point x="151" y="0" type="line"/>
      <point x="321" y="0" type="line"/>
      <point x="228" y="500" type="line"/>
    </contour>
  </outline>
</glyph>
<glyph name="w" format="1">
  <advance width="942"/>
  <unicode hex="0077"/>
  <outline>
    <contour>
      <point x="411" y="500" type="line"/>
      <point x="529" y="0" type="line"/>
      <point x="689" y="0" type="line"/>
      <point x="584" y="500" type="line"/>
    </contour>
    <contour>
      <point x="-9" y="500" type="line"/>
      <point x="127" y="0" type="line"/>
      <point x="312" y="0" type="line"/>
      <point x="229" y="500" type="line"/>
    </contour>
    <contour>
      <point x="358" y="500" type="line"/>
      <point x="253" y="0" type="line"/>
      <point x="413" y="0" type="line"/>
      <point x="531" y="500" type="line"/>
    </contour>
    <contour>
      <point x="713" y="500" type="line"/>
      <point x="630" y="0" type="line"/>
      <point x="815" y="0" type="line"/>
      <point x="951" y="500" type="line"/>
    </contour>
  </outline>
</glyph>
<glyph name="braceleft" format="1">
  <advance width="466"/>
  <unicode hex="007B"/>
  <outline>
    <contour>
      <point x="243" y="726"/>
      <point x="162" y="678"/>
      <point x="162" y="526" type="curve" smooth="yes"/>
      <point x="162" y="439" type="line" smooth="yes"/>
      <point x="162" y="364"/>
      <point x="131" y="335"/>
      <point x="50" y="335" type="curve"/>
      <point x="50" y="245" type="line"/>
      <point x="233" y="245"/>
      <point x="339" y="267"/>
      <point x="339" y="384" type="curve" smooth="yes"/>
      <point x="339" y="489" type="line" smooth="yes"/>
      <point x="339" y="560"/>
      <point x="374" y="589"/>
      <point x="453" y="589" type="curve"/>
      <point x="453" y="726" type="line"/>
    </contour>
    <contour>
      <point x="50" y="198" type="line"/>
      <point x="131" y="198"/>
      <point x="162" y="169"/>
      <point x="162" y="94" type="curve" smooth="yes"/>
      <point x="162" y="8" type="line" smooth="yes"/>
      <point x="162" y="-145"/>
      <point x="243" y="-193"/>
      <point x="453" y="-193" type="curve"/>
      <point x="453" y="-56" type="line"/>
      <point x="374" y="-56"/>
      <point x="339" y="-27"/>
      <point x="339" y="45" type="curve" smooth="yes"/>
      <point x="339" y="149" type="line" smooth="yes"/>
      <point x="339" y="266"/>
      <point x="233" y="288"/>
      <point x="50" y="288" type="curve"/>
    </contour>
  </outline>
</glyph>
<glyph name="currency" format="1">
  <advance width="634"/>
  <unicode hex="00A4"/>
  <outline>
    <contour>
      <point x="188" y="536"/>
      <point x="102" y="453"/>
      <point x="102" y="330" type="curve" smooth="yes"/>
      <point x="102" y="206"/>
      <point x="188" y="123"/>
      <point x="318" y="123" type="curve" smooth="yes"/>
      <point x="446" y="123"/>
      <point x="532" y="206"/>
      <point x="532" y="330" type="curve" smooth="yes"/>
      <point x="532" y="453"/>
      <point x="446" y="536"/>
      <point x="318" y="536" type="curve" smooth="yes"/>
    </contour>
    <contour>
      <point x="346" y="378"/>
      <point x="363" y="360"/>
      <point x="363" y="330" type="curve" smooth="yes"/>
      <point x="363" y="299"/>
      <point x="346" y="281"/>
      <point x="318" y="281" type="curve" smooth="yes"/>
      <point x="289" y="281"/>
      <point x="272" y="299"/>
      <point x="272" y="330" type="curve" smooth="yes"/>
      <point x="272" y="360"/>
      <point x="289" y="378"/>
      <point x="318" y="378" type="curve" smooth="yes"/>
    </contour>
    <contour>
      <point x="14" y="503" type="line"/>
      <point x="180" y="364" type="line"/>
      <point x="282" y="466" type="line"/>
      <point x="143" y="632" type="line"/>
    </contour>
    <contour>
      <point x="14" y="156" type="line"/>
      <point x="143" y="27" type="line"/>
      <point x="282" y="193" type="line"/>
      <point x="180" y="295" type="line"/>
    </contour>
    <contour>
      <point x="356" y="187" type="line"/>
      <point x="490" y="27" type="line"/>
      <point x="620" y="156" type="line"/>
      <point x="460" y="290" type="line"/>
    </contour>
    <contour>
      <point x="356" y="472" type="line"/>
      <point x="460" y="368" type="line"/>
      <point x="620" y="503" type="line"/>
      <point x="490" y="632" type="line"/>
    </contour>
  </outline>
</glyph>
<glyph name="dieresis" format="1">
  <advance width="500"/>
  <unicode hex="00A8"/>
  <outline>
    <contour>
      <point x="65" y="720"/>
      <point x="28" y="687"/>
      <point x="28" y="629" type="curve" smooth="yes"/>
      <point x="28" y="571"/>
      <point x="65" y="538"/>
      <point x="130" y="538" type="curve" smooth="yes"/>
      <point x="197" y="538"/>
      <point x="235" y="571"/>
      <point x="235" y="629" type="curve" smooth="yes"/>
      <point x="235" y="687"/>
      <point x="197" y="720"/>
      <point x="130" y="720" type="curve" smooth="yes"/>
    </contour>
    <contour>
      <point x="302" y="720"/>
      <point x="265" y="687"/>
      <point x="265" y="629" type="curve" smooth="yes"/>
      <point x="265" y="571"/>
      <point x="302" y="538"/>
      <point x="367" y="538" type="curve" smooth="yes"/>
      <point x="434" y="538"/>
      <point x="472" y="571"/>
      <point x="472" y="629" type="curve" smooth="yes"/>
      <point x="472" y="687"/>
      <point x="434" y="720"/>
      <point x="367" y="720" type="curve" smooth="yes"/>
    </contour>
    <contour>
      <point x="250" y="500" type="move" name="_top"/>
    </contour>
  </outline>
</glyph>
<glyph name="copyright" format="1">
  <advance width="740"/>
  <unicode hex="00A9"/>
  <outline>
    <contour>
      <point x="161" y="670"/>
      <point x="24" y="535"/>
      <point x="24" y="330" type="curve" smooth="yes"/>
      <point x="24" y="125"/>
      <point x="161" y="-10"/>
      <point x="370" y="-10" type="curve" smooth="yes"/>
      <point x="579" y="-10"/>
      <point x="716" y="125"/>
      <point x="716" y="330" type="curve" smooth="yes"/>
      <point x="716" y="535"/>
      <point x="579" y="670"/>
      <point x="370" y="670" type="curve" smooth="yes"/>
    </contour>
    <contour>
      <point x="253" y="525"/>
      <point x="183" y="448"/>
      <point x="183" y="330" type="curve" smooth="yes"/>
      <point x="183" y="212"/>
      <point x="253" y="135"/>
      <point x="359" y="135" type="curve" smooth="yes"/>
      <point x="473" y="135"/>
      <point x="514" y="167"/>
      <point x="550" y="258" type="curve"/>
      <point x="435" y="318" type="line"/>
      <point x="424" y="290"/>
      <point x="408" y="288"/>
      <point x="378" y="288" type="curve" smooth="yes"/>
      <point x="349" y="288"/>
      <point x="337" y="302"/>
      <point x="337" y="330" type="curve" smooth="yes"/>
      <point x="337" y="358"/>
      <point x="349" y="372"/>
      <point x="377" y="372" type="curve" smooth="yes"/>
      <point x="410" y="372"/>
      <point x="422" y="367"/>
      <point x="434" y="345" type="curve"/>
      <point x="554" y="404" type="line"/>
      <point x="533" y="477"/>
      <point x="477" y="525"/>
      <point x="359" y="525" type="curve" smooth="yes"/>
    </contour>
    <contour>
      <point x="518" y="574"/>
      <point x="615" y="477"/>
      <point x="615" y="330" type="curve" smooth="yes"/>
      <point x="615" y="183"/>
      <point x="518" y="86"/>
      <point x="370" y="86" type="curve" smooth="yes"/>
      <point x="222" y="86"/>
      <point x="125" y="183"/>
      <point x="125" y="330" type="curve" smooth="yes"/>
      <point x="125" y="477"/>
      <point x="222" y="574"/>
      <point x="370" y="574" type="curve" smooth="yes"/>
    </contour>
  </outline>
</glyph>
<glyph name="threesuperior" format="1">
  <advance width="418"/>
  <unicode hex="00B3"/>
  <outline>
    <contour>
      <point x="302" y="548" type="line"/>
      <point x="328" y="548"/>
      <point x="383" y="568"/>
      <point x="383" y="628" type="curve" smooth="yes"/>
      <point x="383" y="702"/>
      <point x="319" y="740"/>
      <point x="212" y="740" type="curve" smooth="yes"/>
      <point x="114" y="740"/>
      <point x="37" y="715"/>
      <point x="26" y="627" type="curve"/>
      <point x="161" y="585" type="line"/>
      <point x="160" y="621"/>
      <point x="177" y="627"/>
      <point x="199" y="627" type="curve" smooth="yes"/>
      <point x="214" y="627"/>
      <point x="226" y="620"/>
      <point x="226" y="609" type="curve" smooth="yes"/>
      <point x="226" y="594"/>
      <point x="217" y="587"/>
      <point x="192" y="587" type="curve" smooth="yes"/>
      <point x="183" y="587" type="line"/>
      <point x="183" y="500" type="line"/>
      <point x="201" y="499" type="line" smooth="yes"/>
      <point x="226" y="498"/>
      <point x="234" y="494"/>
      <point x="234" y="481" type="curve" smooth="yes"/>
      <point x="234" y="469"/>
      <point x="220" y="464"/>
      <point x="202" y="464" type="curve" smooth="yes"/>
      <point x="181" y="464"/>
      <point x="159" y="468"/>
      <point x="161" y="503" type="curve"/>
      <point x="20" y="447" type="line"/>
      <point x="42" y="376"/>
      <point x="103" y="352"/>
      <point x="209" y="352" type="curve" smooth="yes"/>
      <point x="311" y="352"/>
      <point x="391" y="393"/>
      <point x="391" y="463" type="curve" smooth="yes"/>
      <point x="391" y="526"/>
      <point x="342" y="546"/>
      <point x="302" y="546" type="curve"/>
    </contour>
  </outline>
</glyph>
<glyph name="Idieresis" format="1">
  <advance width="333"/>
  <unicode hex="00CF"/>
  <outline>
    <contour>
      <point x="6" y="883"/>
      <point x="-26" y="849"/>
      <point x="-26" y="789" type="curve" smooth="yes"/>
      <point x="-26" y="729"/>
      <point x="6" y="695"/>
      <point x="62" y="695" type="curve" smooth="yes"/>
      <point x="120" y="695"/>
      <point x="154" y="729"/>
      <point x="154" y="789" type="curve" smooth="yes"/>
      <point x="154" y="849"/>
      <point x="120" y="883"/>
      <point x="62" y="883" type="curve" smooth="yes"/>
    </contour>
    <contour>
      <point x="212" y="883"/>
      <point x="180" y="849"/>
      <point x="180" y="789" type="curve" smooth="yes"/>
      <point x="180" y="729"/>
      <point x="212" y="695"/>
      <point x="268" y="695" type="curve" smooth="yes"/>
      <point x="326" y="695"/>
      <point x="360" y="729"/>
      <point x="360" y="789" type="curve" smooth="yes"/>
      <point x="360" y="849"/>
      <point x="326" y="883"/>
      <point x="268" y="883" type="curve" smooth="yes"/>
    </contour>
    <component base="I"/>
  </outline>
</glyph>
<glyph name="Oslash" format="1">
  <advance width="729"/>
  <unicode hex="00D8"/>
  <outline>
    <contour>
      <point x="193" y="176" type="line"/>
      <point x="48" y="-21" type="line"/>
      <point x="144" y="-21" type="line"/>
      <point x="245" y="118" type="line"/>
    </contour>
    <contour>
      <point x="532" y="482" type="line"/>
      <point x="679" y="680" type="line"/>
      <point x="584" y="680" type="line"/>
      <point x="483" y="541" type="line"/>
    </contour>
    <contour>
      <point x="261" y="112" type="line"/>
      <point x="529" y="488" type="line"/>
      <point x="472" y="545" type="line"/>
      <point x="203" y="167" type="line"/>
    </contour>
    <component base="O"/>
  </outline>
</glyph>
<glyph name="oslash" format="1">
  <advance width="598"/>
  <unicode hex="00F8"/>
  <outline>
    <contour>
      <point x="178" y="123" type="line"/>
      <point x="215" y="90" type="line"/>
      <point x="438" y="388" type="line"/>
      <point x="401" y="423" type="line"/>
    </contour>
    <contour>
      <point x="111" y="-21" type="line"/>
      <point x="198" y="95" type="line"/>
      <point x="162" y="131" type="line"/>
      <point x="44" y="-21" type="line"/>
    </contour>
    <contour>
      <point x="499" y="520" type="line"/>
      <point x="414" y="413" type="line"/>
      <point x="449" y="376" type="line"/>
      <point x="566" y="520" type="line"/>
    </contour>
    <component base="o"/>
  </outline>
</glyph>
<glyph name="thorn" format="1">
  <advance width="627"/>
  <unicode hex="00FE"/>
  <outline>
    <contour>
      <point x="39" y="700" type="line"/>
      <point x="39" y="-210" type="line"/>
      <point x="269" y="-210" type="line"/>
      <point x="269" y="700" type="line"/>
    </contour>
    <contour>
      <point x="295" y="510"/>
      <point x="249" y="397"/>
      <point x="249" y="280" type="curve"/>
      <point x="269" y="254" type="line"/>
      <point x="269" y="323"/>
      <point x="287" y="349"/>
      <point x="318" y="349" type="curve" smooth="yes"/>
      <point x="357" y="349"/>
      <point x="370" y="329"/>
      <point x="370" y="250" type="curve" smooth="yes"/>
      <point x="370" y="171"/>
      <point x="357" y="152"/>
      <point x="318" y="152" type="curve" smooth="yes"/>
      <point x="284" y="152"/>
      <point x="269" y="182"/>
      <point x="269" y="246" type="curve"/>
      <point x="242" y="220" type="line"/>
      <point x="242" y="90"/>
      <point x="289" y="-10"/>
      <point x="409" y="-10" type="curve" smooth="yes"/>
      <point x="481" y="-10"/>
      <point x="602" y="35"/>
      <point x="602" y="258" type="curve" smooth="yes"/>
      <point x="602" y="439"/>
      <point x="514" y="510"/>
      <point x="418" y="510" type="curve" smooth="yes"/>
    </contour>
    <contour>
      <point x="377" y="500" type="move" name="top"/>
    </contour>
    <contour>
      <point x="377" y="0" type="move" name="bottom"/>
    </contour>
  </outline>
</glyph>
<glyph name="Aogonek" format="1">
  <advance width="709"/>
  <unicode hex="0104"/>
  <outline>
    <contour>
      <point x="621" y="32" type="line"/>
      <point x="519" y="26"/>
      <point x="446" y="-17"/>
      <point x="446" y="-96" type="curve" smooth="yes"/>
      <point x="446" y="-180"/>
      <point x="515" y="-215"/>
      <point x="598" y="-215" type="curve" smooth="yes"/>
      <point x="648" y="-215"/>
      <point x="684" y="-209"/>
      <point x="716" y="-189" type="curve"/>
      <point x="689" y="-86" type="line"/>
      <point x="679" y="-92"/>
      <point x="664" y="-94"/>
      <point x="649" y="-94" type="curve" smooth="yes"/>
      <point x="618" y="-94"/>
      <point x="600" y="-80"/>
      <point x="600" y="-56" type="curve" smooth="yes"/>
      <point x="600" y="-25"/>
      <point x="628" y="-5"/>
      <point x="713" y="0" type="curve"/>
    </contour>
    <component base="A"/>
  </outline>
</glyph>
<glyph name="gbreve" format="1">
  <advance width="605"/>
  <unicode hex="011F"/>
  <outline>
    <contour>
      <point x="486" y="662"/>
      <point x="420" y="559"/>
      <point x="440" y="454" type="curve"/>
      <point x="497" y="434" type="line"/>
      <point x="497" y="500"/>
      <point x="544" y="527"/>
      <point x="600" y="520" type="curve"/>
      <point x="581" y="662" type="line"/>
    </contour>
    <component base="gbase" xOffset="-3"/>
    <component base="breve" xOffset="42"/>
    <contour>
      <point x="258" y="500" type="move" name="top"/>
    </contour>
  </outline>
</glyph>
<glyph name="Imacron" format="1">
  <advance width="333"/>
  <unicode hex="012A"/>
  <outline>
    <component base="I"/>
    <component base="macron" xOffset="-47" yOffset="160" xScale="0.85"/>
    <contour>
      <point x="400" y="170" type="move" name="ogonek"/>
    </contour>
  </outline>
</glyph>
<glyph name="OE" format="1">
  <advance width="1029"/>
  <unicode hex="0152"/>
  <outline>
    <contour>
      <point x="152" y="670"/>
      <point x="29" y="546"/>
      <point x="29" y="330" type="curve" smooth="yes"/>
      <point x="29" y="114"/>
      <point x="152" y="-10"/>
      <point x="342" y="-10" type="curve" smooth="yes"/>
      <point x="550" y="-10"/>
      <point x="642" y="162"/>
      <point x="642" y="330" type="curve" smooth="yes"/>
      <point x="642" y="498"/>
      <point x="550" y="670"/>
      <point x="342" y="670" type="curve" smooth="yes"/>
    </contour>
    <contour>
      <point x="423" y="495"/>
      <point x="452" y="445"/>
      <point x="452" y="330" type="curve" smooth="yes"/>
      <point x="452" y="215"/>
      <point x="423" y="165"/>
      <point x="355" y="165" type="curve" smooth="yes"/>
      <point x="291" y="165"/>
      <point x="262" y="215"/>
      <point x="262" y="330" type="curve" smooth="yes"/>
      <point x="262" y="445"/>
      <point x="291" y="495"/>
      <point x="355" y="495" type="curve" smooth="yes"/>
    </contour>
    <contour>
      <point x="565" y="171" type="line"/>
      <point x="565" y="0" type="line"/>
      <point x="1011" y="0" type="line"/>
      <point x="1013" y="171" type="line"/>
    </contour>
    <contour>
      <point x="542" y="660" type="line"/>
      <point x="542" y="0" type="line"/>
      <point x="685" y="0" type="line"/>
      <point x="685" y="660" type="line"/>
    </contour>
    <contour>
      <point x="565" y="407" type="line"/>
      <point x="565" y="249" type="line"/>
      <point x="939" y="249" type="line"/>
      <point x="938" y="407" type="line"/>
    </contour>
    <contour>
      <point x="565" y="660" type="line"/>
      <point x="565" y="489" type="line"/>
      <point x="1000" y="489" type="line"/>
      <point x="999" y="660" type="line"/>
    </contour>
    <contour>
      <point x="1012" y="660" type="move" name="top"/>
    </contour>
  </outline>
</glyph>
<glyph name="uni0162" format="1">
  <advance width="686"/>
  <unicode hex="0162"/>
  <outline>
    <contour>
      <point x="344" y="0"/>
      <point x="372" y="-18"/>
      <point x="372" y="-51" type="curve" smooth="yes"/>
      <point x="372" y="-87"/>
      <point x="345" y="-101"/>
      <point x="316" y="-101" type="curve" smooth="yes"/>
      <point x="281" y="-101"/>
      <point x="265" y="-89"/>
      <point x="250" y="-70" type="curve"/>
      <point x="194" y="-170" type="line"/>
      <point x="218" y="-193"/>
      <point x="260" y="-215"/>
      <point x="333" y="-215" type="curve" smooth="yes"/>
      <point x="421" y="-215"/>
      <point x="494" y="-184"/>
      <point x="494" y="-83" type="curve" smooth="yes"/>
      <point x="494" y="3"/>
      <point x="434" y="46"/>
      <point x="308" y="48" type="curve"/>
      <point x="298" y="0" type="line"/>
    </contour>
    <component base="T"/>
  </outline>
</glyph>
<glyph name="uni0163" format="1">
  <advance width="445"/>
  <unicode hex="0163"/>
  <outline>
    <contour>
      <point x="252" y="-8"/>
      <point x="275" y="-25"/>
      <point x="275" y="-59" type="curve" smooth="yes"/>
      <point x="275" y="-89"/>
      <point x="254" y="-104"/>
      <point x="217" y="-104" type="curve" smooth="yes"/>
      <point x="186" y="-104"/>
      <point x="163" y="-92"/>
      <point x="148" y="-76" type="curve"/>
      <point x="102" y="-172" type="line"/>
      <point x="126" y="-195"/>
      <point x="163" y="-215"/>
      <point x="236" y="-215" type="curve" smooth="yes"/>
      <point x="324" y="-215"/>
      <point x="397" y="-184"/>
      <point x="397" y="-90" type="curve" smooth="yes"/>
      <point x="397" y="-19"/>
      <point x="330" y="25"/>
      <point x="211" y="52" type="curve"/>
      <point x="179" y="5" type="line"/>
    </contour>
    <component base="t"/>
  </outline>
</glyph>
<glyph name="Uogonek" format="1">
  <advance width="738"/>
  <unicode hex="0172"/>
  <outline>
    <contour>
      <point x="422" y="42" type="line"/>
      <point x="320" y="36"/>
      <point x="247" y="-7"/>
      <point x="247" y="-86" type="curve" smooth="yes"/>
      <point x="247" y="-170"/>
      <point x="316" y="-205"/>
      <point x="399" y="-205" type="curve" smooth="yes"/>
      <point x="449" y="-205"/>
      <point x="485" y="-199"/>
      <point x="517" y="-179" type="curve"/>
      <point x="490" y="-76" type="line"/>
      <point x="480" y="-82"/>
      <point x="465" y="-84"/>
      <point x="450" y="-84" type="curve" smooth="yes"/>
      <point x="419" y="-84"/>
      <point x="401" y="-70"/>
      <point x="401" y="-46" type="curve" smooth="yes"/>
      <point x="401" y="-15"/>
      <point x="429" y="5"/>
      <point x="504" y="20" type="curve"/>
    </contour>
    <component base="U"/>
  </outline>
</glyph>
<glyph name="florin" format="1">
  <advance width="535"/>
  <unicode hex="0192"/>
  <outline>
    <contour>
      <point x="335" y="722"/>
      <point x="230" y="680"/>
      <point x="205" y="530" type="curve" smooth="yes"/>
      <point x="126" y="90" type="line" smooth="yes"/>
      <point x="118" y="43"/>
      <point x="81" y="20"/>
      <point x="40" y="20" type="curve" smooth="yes"/>
      <point x="25" y="20"/>
      <point x="8" y="23"/>
      <point x="-4" y="31" type="curve"/>
      <point x="-32" y="-99" type="line"/>
      <point x="-9" y="-114"/>
      <point x="15" y="-128"/>
      <point x="86" y="-128" type="curve" smooth="yes"/>
      <point x="184" y="-128"/>
      <point x="289" y="-86"/>
      <point x="314" y="63" type="curve" smooth="yes"/>
      <point x="393" y="503" type="line" smooth="yes"/>
      <point x="401" y="551"/>
      <point x="438" y="574"/>
      <point x="479" y="574" type="curve" smooth="yes"/>
      <point x="494" y="574"/>
      <point x="510" y="571"/>
      <point x="523" y="563" type="curve"/>
      <point x="551" y="693" type="line"/>
      <point x="528" y="708"/>
      <point x="504" y="722"/>
      <point x="433" y="722" type="curve" smooth="yes"/>
    </contour>
    <contour>
      <point x="28" y="429" type="line"/>
      <point x="28" y="277" type="line"/>
      <point x="506" y="277" type="line"/>
      <point x="506" y="429" type="line"/>
    </contour>
  </outline>
</glyph>
<glyph name="breve" format="1">
  <advance width="500"/>
  <unicode hex="02D8"/>
  <outline>
    <contour>
      <point x="294" y="713" type="line"/>
      <point x="294" y="677"/>
      <point x="280" y="658"/>
      <point x="250" y="658" type="curve" smooth="yes"/>
      <point x="220" y="658"/>
      <point x="206" y="677"/>
      <point x="206" y="713" type="curve"/>
      <point x="67" y="713" type="line"/>
      <point x="67" y="603"/>
      <point x="134" y="540"/>
      <point x="250" y="540" type="curve" smooth="yes"/>
      <point x="366" y="540"/>
      <point x="433" y="603"/>
      <point x="433" y="713" type="curve"/>
    </contour>
    <contour>
      <point x="250" y="500" type="move" name="_top"/>
    </contour>
  </outline>
</glyph>
<glyph name="endash" format="1">
  <advance width="650"/>
  <unicode hex="2013"/>
  <outline>
    <contour>
      <point x="45" y="359" type="line"/>
      <point x="45" y="184" type="line"/>
      <point x="605" y="184" type="line"/>
      <point x="605" y="359" type="line"/>
    </contour>
  </outline>
</glyph>
<glyph name="dagger" format="1">
  <advance width="732"/>
  <unicode hex="2020"/>
  <outline>
    <contour>
      <point x="257" y="660" type="line"/>
      <point x="257" y="-210" type="line"/>
      <point x="476" y="-210" type="line"/>
      <point x="476" y="660" type="line"/>
    </contour>
    <contour>
      <point x="33" y="445" type="line"/>
      <point x="33" y="274" type="line"/>
      <point x="700" y="274" type="line"/>
      <point x="700" y="445" type="line"/>
    </contour>
  </outline>
</glyph>
<glyph name="fraction" format="1">
  <advance width="614"/>
  <unicode hex="2044"/>
  <outline>
    <contour>
      <point x="142" y="0" type="line"/>
      <point x="618" y="661" type="line"/>
      <point x="471" y="661" type="line"/>
      <point x="-5" y="0" type="line"/>
    </contour>
  </outline>
</glyph>
<glyph name="Euro" format="1">
  <advance width="703"/>
  <unicode hex="20AC"/>
  <outline>
    <contour>
      <point x="205" y="670"/>
      <point x="77" y="545"/>
      <point x="77" y="330" type="curve" smooth="yes"/>
      <point x="77" y="115"/>
      <point x="205" y="-10"/>
      <point x="413" y="-10" type="curve" smooth="yes"/>
      <point x="555" y="-10"/>
      <point x="663" y="48"/>
      <point x="689" y="178" type="curve"/>
      <point x="519" y="225" type="line"/>
      <point x="509" y="167"/>
      <point x="474" y="143"/>
      <point x="420" y="143" type="curve" smooth="yes"/>
      <point x="316" y="143"/>
      <point x="284" y="205"/>
      <point x="284" y="330" type="curve" smooth="yes"/>
      <point x="284" y="456"/>
      <point x="324" y="517"/>
      <point x="424" y="517" type="curve" smooth="yes"/>
      <point x="476" y="517"/>
      <point x="525" y="498"/>
      <point x="528" y="436" type="curve"/>
      <point x="690" y="512" type="line"/>
      <point x="663" y="611"/>
      <point x="550" y="670"/>
      <point x="413" y="670" type="curve" smooth="yes"/>
    </contour>
    <contour>
      <point x="0" y="292" type="line"/>
      <point x="0" y="206" type="line"/>
      <point x="461" y="206" type="line"/>
      <point x="488" y="292" type="line"/>
    </contour>
    <contour>
      <point x="0" y="422" type="line"/>
      <point x="0" y="336" type="line"/>
      <point x="499" y="336" type="line"/>
      <point x="529" y="422" type="line"/>
    </contour>
    <contour>
      <point x="404" y="660" type="move" name="top"/>
    </contour>
    <contour>
      <point x="406" y="0" type="move" name="bottom"/>
    </contour>
  </outline>
</glyph>
<glyph name="trademark" format="1">
  <advance width="818"/>
  <unicode hex="2122"/>
  <outline>
    <contour>
      <point x="99" y="660" type="line"/>
      <point x="99" y="330" type="line"/>
      <point x="219" y="330" type="line"/>
      <point x="219" y="660" type="line"/>
    </contour>
    <contour>
      <point x="-4" y="660" type="line"/>
      <point x="-4" y="573" type="line"/>
      <point x="322" y="573" type="line"/>
      <point x="321" y="660" type="line"/>
    </contour>
    <contour>
      <point x="633" y="660" type="line"/>
      <point x="596" y="529" type="line"/>
      <point x="583" y="465" type="line"/>
      <point x="580" y="465" type="line"/>
      <point x="567" y="529" type="line"/>
      <point x="531" y="660" type="line"/>
      <point x="351" y="660" type="line"/>
      <point x="351" y="330" type="line"/>
      <point x="470" y="330" type="line"/>
      <point x="470" y="441" type="line"/>
      <point x="469" y="543" type="line"/>
      <point x="472" y="543" type="line"/>
      <point x="495" y="456" type="line"/>
      <point x="530" y="330" type="line"/>
      <point x="630" y="330" type="line"/>
      <point x="665" y="455" type="line"/>
      <point x="688" y="543" type="line"/>
      <point x="691" y="543" type="line"/>
      <point x="690" y="441" type="line"/>
      <point x="690" y="330" type="line"/>
      <point x="808" y="330" type="line"/>
      <point x="808" y="660" type="line"/>
    </contour>
    <contour>
      <point x="322" y="660" type="move" name="top"/>
    </contour>
    <contour>
      <point x="202" y="0" type="move" name="bottom"/>
    </contour>
  </outline>
</glyph>
<glyph name="uni2126" format="1">
  <advance width="780"/>
  <unicode hex="2126"/>
  <outline>
    <contour>
      <point x="181" y="670"/>
      <point x="54" y="554"/>
      <point x="54" y="367" type="curve" smooth="yes"/>
      <point x="54" y="210"/>
      <point x="161" y="122"/>
      <point x="341" y="120" type="curve"/>
      <point x="361" y="148" type="line"/>
      <point x="309" y="150"/>
      <point x="292" y="203"/>
      <point x="292" y="324" type="curve" smooth="yes"/>
      <point x="292" y="440"/>
      <point x="321" y="495"/>
      <point x="390" y="495" type="curve" smooth="yes"/>
      <point x="458" y="495"/>
      <point x="488" y="440"/>
      <point x="488" y="324" type="curve" smooth="yes"/>
      <point x="488" y="203"/>
      <point x="470" y="150"/>
      <point x="418" y="148" type="curve"/>
      <point x="438" y="120" type="line"/>
      <point x="618" y="122"/>
      <point x="725" y="210"/>
      <point x="725" y="367" type="curve" smooth="yes"/>
      <point x="725" y="554"/>
      <point x="599" y="670"/>
      <point x="390" y="670" type="curve" smooth="yes"/>
    </contour>
    <contour>
      <point x="51" y="0" type="line"/>
      <point x="362" y="0" type="line"/>
      <point x="362" y="148" type="line"/>
      <point x="51" y="148" type="line"/>
    </contour>
    <contour>
      <point x="418" y="148" type="line"/>
      <point x="418" y="0" type="line"/>
      <point x="729" y="0" type="line"/>
      <point x="729" y="148" type="line"/>
    </contour>
  </outline>
</glyph>
<glyph name="product" format="1">
  <advance width="696"/>
  <unicode hex="220F"/>
  <outline>
    <contour>
      <point x="423" y="660" type="line"/>
      <point x="423" y="-128" type="line"/>
      <point x="646" y="-128" type="line"/>
      <point x="646" y="660" type="line"/>
    </contour>
    <contour>
      <point x="50" y="660" type="line"/>
      <point x="50" y="-128" type="line"/>
      <point x="273" y="-128" type="line"/>
      <point x="273" y="660" type="line"/>
    </contour>
    <contour>
      <point x="159" y="660" type="line"/>
      <point x="159" y="489" type="line"/>
      <point x="546" y="489" type="line"/>
      <point x="546" y="660" type="line"/>
    </contour>
  </outline>
</glyph>
<glyph name="summation" format="1">
  <advance width="696"/>
  <unicode hex="2211"/>
  <outline>
    <contour>
      <point x="284" y="266" type="line"/>
      <point x="55" y="33" type="line"/>
      <point x="279" y="12" type="line"/>
      <point x="515" y="245" type="line"/>
      <point x="515" y="266" type="line"/>
    </contour>
    <contour>
      <point x="55" y="33" type="line"/>
      <point x="55" y="-128" type="line"/>
      <point x="643" y="-128" type="line"/>
      <point x="643" y="33" type="line"/>
    </contour>
    <contour>
      <point x="55" y="489" type="line"/>
      <point x="284" y="266" type="line"/>
      <point x="515" y="266" type="line"/>
      <point x="515" y="286" type="line"/>
      <point x="279" y="511" type="line"/>
    </contour>
    <contour>
      <point x="55" y="660" type="line"/>
      <point x="55" y="489" type="line"/>
      <point x="643" y="489" type="line"/>
      <point x="643" y="660" type="line"/>
    </contour>
  </outline>
</glyph>
<glyph name="integral" format="1">
  <advance width="490"/>
  <unicode hex="222B"/>
  <outline>
    <contour>
      <point x="252" y="758"/>
      <point x="141" y="708"/>
      <point x="141" y="559" type="curve" smooth="yes"/>
      <point x="141" y="83" type="line" smooth="yes"/>
      <point x="141" y="35"/>
      <point x="112" y="20"/>
      <point x="64" y="20" type="curve" smooth="yes"/>
      <point x="36" y="20"/>
      <point x="21" y="25"/>
      <point x="7" y="36" type="curve"/>
      <point x="-8" y="-94" type="line"/>
      <point x="18" y="-114"/>
      <point x="62" y="-128"/>
      <point x="125" y="-128" type="curve" smooth="yes"/>
      <point x="239" y="-128"/>
      <point x="349" y="-78"/>
      <point x="349" y="71" type="curve" smooth="yes"/>
      <point x="349" y="547" type="line" smooth="yes"/>
      <point x="349" y="595"/>
      <point x="379" y="610"/>
      <point x="426" y="610" type="curve" smooth="yes"/>
      <point x="455" y="610"/>
      <point x="470" y="605"/>
      <point x="484" y="594" type="curve"/>
      <point x="499" y="724" type="line"/>
      <point x="473" y="744"/>
      <point x="428" y="758"/>
      <point x="366" y="758" type="curve" smooth="yes"/>
    </contour>
  </outline>
</glyph>
<glyph name="approxequal" format="1">
  <advance width="697"/>
  <unicode hex="2248"/>
  <outline>
    <contour>
      <point x="140" y="600"/>
      <point x="101" y="579"/>
      <point x="48" y="530" type="curve"/>
      <point x="48" y="344" type="line"/>
      <point x="97" y="394"/>
      <point x="137" y="415"/>
      <point x="211" y="415" type="curve" smooth="yes"/>
      <point x="305" y="415"/>
      <point x="390" y="326"/>
      <point x="490" y="326" type="curve" smooth="yes"/>
      <point x="550" y="326"/>
      <point x="600" y="347"/>
      <point x="649" y="395" type="curve"/>
      <point x="649" y="580" type="line"/>
      <point x="591" y="525"/>
      <point x="545" y="510"/>
      <point x="491" y="510" type="curve" smooth="yes"/>
      <point x="400" y="510"/>
      <point x="316" y="600"/>
      <point x="211" y="600" type="curve" smooth="yes"/>
    </contour>
    <contour>
      <point x="140" y="316"/>
      <point x="101" y="296"/>
      <point x="48" y="247" type="curve"/>
      <point x="48" y="61" type="line"/>
      <point x="97" y="111"/>
      <point x="137" y="131"/>
      <point x="211" y="131" type="curve" smooth="yes"/>
      <point x="305" y="131"/>
      <point x="390" y="42"/>
      <point x="490" y="42" type="curve" smooth="yes"/>
      <point x="550" y="42"/>
      <point x="600" y="64"/>
      <point x="649" y="112" type="curve"/>
      <point x="649" y="297" type="line"/>
      <point x="591" y="242"/>
      <point x="545" y="227"/>
      <point x="491" y="227" type="curve" smooth="yes"/>
      <point x="400" y="227"/>
      <point x="316" y="316"/>
      <point x="211" y="316" type="curve" smooth="yes"/>
    </contour>
  </outline>
</glyph>
<glyph name="notequal" format="1">
  <advance width="697"/>
  <unicode hex="2260"/>
  <outline>
    <contour>
      <point x="391" y="655" type="line"/>
      <point x="136" y="3" type="line"/>
      <point x="307" y="3" type="line"/>
      <point x="562" y="655" type="line"/>
    </contour>
    <contour>
      <point x="53" y="541" type="line"/>
      <point x="53" y="385" type="line"/>
      <point x="644" y="385" type="line"/>
      <point x="644" y="541" type="line"/>
    </contour>
    <contour>
      <point x="53" y="265" type="line"/>
      <point x="53" y="108" type="line"/>
      <point x="644" y="108" type="line"/>
      <point x="644" y="265" type="line"/>
    </contour>
  </outline>
</glyph>
<glyph name="caron.alt" format="1">
  <advance width="239"/>
  <outline>
    <contour>
      <point x="52" y="700" type="line"/>
      <point x="30" y="433" type="line"/>
      <point x="156" y="433" type="line"/>
      <point x="217" y="700" type="line"/>
    </contour>
    <contour>
      <point x="52" y="700" type="move" name="_topright"/>
    </contour>
  </outline>
</glyph>
<glyph name="dollar.001" format="1">
  <advance width="659"/>
  <outline>
    <contour>
      <point x="142" y="660"/>
      <point x="30" y="573"/>
      <point x="30" y="449" type="curve" smooth="yes"/>
      <point x="30" y="198"/>
      <point x="431" y="276"/>
      <point x="431" y="188" type="curve" smooth="yes"/>
      <point x="431" y="167"/>
      <point x="399" y="152"/>
      <point x="328" y="152" type="curve" smooth="yes"/>
      <point x="229" y="152"/>
      <point x="153" y="177"/>
      <point x="103" y="236" type="curve"/>
      <point x="11" y="93" type="line"/>
      <point x="87" y="33"/>
      <point x="172" y="0"/>
      <point x="343" y="0" type="curve" smooth="yes"/>
      <point x="510" y="0"/>
      <point x="645" y="69"/>
      <point x="645" y="198" type="curve" smooth="yes"/>
      <point x="645" y="453"/>
      <point x="244" y="380"/>
      <point x="244" y="464" type="curve" smooth="yes"/>
      <point x="244" y="489"/>
      <point x="285" y="508"/>
      <point x="350" y="508" type="curve" smooth="yes"/>
      <point x="437" y="508"/>
      <point x="503" y="486"/>
      <point x="555" y="424" type="curve"/>
      <point x="655" y="553" type="line"/>
      <point x="587" y="613"/>
      <point x="513" y="660"/>
      <point x="344" y="660" type="curve" smooth="yes"/>
    </contour>
    <contour>
      <point x="252" y="75" type="line"/>
      <point x="252" y="-110" type="line"/>
      <point x="428" y="-110" type="line"/>
      <point x="428" y="75" type="line"/>
    </contour>
    <contour>
      <point x="426" y="601" type="line"/>
      <point x="426" y="770" type="line"/>
      <point x="251" y="770" type="line"/>
      <point x="251" y="601" type="line"/>
    </contour>
  </outline>
</glyph>
<glyph name="g.ss01" format="1">
  <advance width="627"/>
  <outline>
    <contour>
      <point x="380" y="500" type="line"/>
      <point x="377" y="374" type="line"/>
      <point x="358" y="365" type="line"/>
      <point x="358" y="-15" type="line" smooth="yes"/>
      <point x="358" y="-65"/>
      <point x="341" y="-83"/>
      <point x="310" y="-83" type="curve" smooth="yes"/>
      <point x="275" y="-83"/>
      <point x="258" y="-58"/>
      <point x="260" y="-4" type="curve"/>
      <point x="39" y="-54" type="line"/>
      <point x="57" y="-186"/>
      <point x="159" y="-215"/>
      <point x="290" y="-215" type="curve" smooth="yes"/>
      <point x="462" y="-215"/>
      <point x="588" y="-154"/>
      <point x="588" y="40" type="curve" smooth="yes"/>
      <point x="588" y="383" type="line"/>
      <point x="588" y="500" type="line"/>
    </contour>
    <contour>
      <point x="95" y="510"/>
      <point x="25" y="420"/>
      <point x="25" y="264" type="curve" smooth="yes"/>
      <point x="25" y="111"/>
      <point x="93" y="23"/>
      <point x="216" y="23" type="curve" smooth="yes"/>
      <point x="332" y="23"/>
      <point x="396" y="118"/>
      <point x="396" y="238" type="curve"/>
      <point x="358" y="263" type="line"/>
      <point x="358" y="205"/>
      <point x="340" y="184"/>
      <point x="309" y="184" type="curve" smooth="yes"/>
      <point x="277" y="184"/>
      <point x="257" y="200"/>
      <point x="257" y="266" type="curve" smooth="yes"/>
      <point x="257" y="332"/>
      <point x="277" y="348"/>
      <point x="309" y="348" type="curve" smooth="yes"/>
      <point x="343" y="348"/>
      <point x="358" y="323"/>
      <point x="358" y="270" type="curve"/>
      <point x="382" y="295" type="line"/>
      <point x="382" y="416"/>
      <point x="333" y="510"/>
      <point x="217" y="510" type="curve" smooth="yes"/>
    </contour>
    <contour>
      <point x="325" y="500" type="move" name="top"/>
    </contour>
  </outline>
</glyph>
<glyph name="gbase" format="1">
  <advance width="590"/>
  <outline>
    <contour>
      <point x="97" y="215"/>
      <point x="27" y="164"/>
      <point x="27" y="97" type="curve" smooth="yes"/>
      <point x="27" y="-7"/>
      <point x="141" y="-36"/>
      <point x="237" y="-36" type="curve" smooth="yes"/>
      <point x="381" y="-36" type="line" smooth="yes"/>
      <point x="408" y="-36"/>
      <point x="417" y="-41"/>
      <point x="417" y="-51" type="curve" smooth="yes"/>
      <point x="417" y="-68"/>
      <point x="384" y="-76"/>
      <point x="301" y="-76" type="curve" smooth="yes"/>
      <point x="213" y="-76"/>
      <point x="180" y="-69"/>
      <point x="180" y="-53" type="curve" smooth="yes"/>
      <point x="180" y="-39"/>
      <point x="193" y="-36"/>
      <point x="242" y="-36" type="curve"/>
      <point x="190" y="-8" type="line"/>
      <point x="53" y="-8"/>
      <point x="14" y="-57"/>
      <point x="14" y="-107" type="curve" smooth="yes"/>
      <point x="14" y="-177"/>
      <point x="91" y="-215"/>
      <point x="287" y="-215" type="curve" smooth="yes"/>
      <point x="479" y="-215"/>
      <point x="591" y="-155"/>
      <point x="591" y="-28" type="curve" smooth="yes"/>
      <point x="591" y="90"/>
      <point x="517" y="142"/>
      <point x="388" y="142" type="curve" smooth="yes"/>
      <point x="215" y="142" type="line" smooth="yes"/>
      <point x="185" y="142"/>
      <point x="172" y="150"/>
      <point x="172" y="163" type="curve" smooth="yes"/>
      <point x="172" y="178"/>
      <point x="188" y="185"/>
      <point x="235" y="185" type="curve"/>
      <point x="186" y="215" type="line"/>
    </contour>
    <contour>
      <point x="118" y="510"/>
      <point x="26" y="454"/>
      <point x="26" y="339" type="curve" smooth="yes"/>
      <point x="26" y="225"/>
      <point x="118" y="170"/>
      <point x="296" y="170" type="curve" smooth="yes"/>
      <point x="474" y="170"/>
      <point x="566" y="225"/>
      <point x="566" y="339" type="curve" smooth="yes"/>
      <point x="566" y="454"/>
      <point x="474" y="510"/>
      <point x="296" y="510" type="curve" smooth="yes"/>
    </contour>
    <contour>
      <point x="323" y="391"/>
      <point x="338" y="372"/>
      <point x="338" y="340" type="curve" smooth="yes"/>
      <point x="338" y="308"/>
      <point x="323" y="289"/>
      <point x="296" y="289" type="curve" smooth="yes"/>
      <point x="269" y="289"/>
      <point x="254" y="308"/>
      <point x="254" y="340" type="curve" smooth="yes"/>
      <point x="254" y="372"/>
      <point x="269" y="391"/>
      <point x="296" y="391" type="curve" smooth="yes"/>
    </contour>
    <contour>
      <point x="261" y="500" type="move" name="top"/>
    </contour>
  </outline>
</glyph>
<glyph name="sterling.part" format="1">
  <advance width="622"/>
  <outline>
    <contour>
      <point x="138" y="670"/>
      <point x="60" y="575"/>
      <point x="60" y="479" type="curve" smooth="yes"/>
      <point x="60" y="342"/>
      <point x="189" y="314"/>
      <point x="189" y="158" type="curve" smooth="yes"/>
      <point x="189" y="81"/>
      <point x="173" y="61"/>
      <point x="141" y="61" type="curve" smooth="yes"/>
      <point x="119" y="61"/>
      <point x="106" y="71"/>
      <point x="106" y="88" type="curve" smooth="yes"/>
      <point x="106" y="105"/>
      <point x="119" y="115"/>
      <point x="143" y="115" type="curve" smooth="yes"/>
      <point x="253" y="115"/>
      <point x="300" y="-10"/>
      <point x="448" y="-10" type="curve" smooth="yes"/>
      <point x="566" y="-10"/>
      <point x="613" y="101"/>
      <point x="585" y="191" type="curve"/>
      <point x="458" y="211" type="line"/>
      <point x="462" y="163"/>
      <point x="443" y="139"/>
      <point x="404" y="139" type="curve" smooth="yes"/>
      <point x="320" y="139"/>
      <point x="297" y="184"/>
      <point x="146" y="184" type="curve" smooth="yes"/>
      <point x="79" y="184"/>
      <point x="14" y="155"/>
      <point x="14" y="87" type="curve" smooth="yes"/>
      <point x="14" y="22"/>
      <point x="72" y="-10"/>
      <point x="141" y="-10" type="curve" smooth="yes"/>
      <point x="263" y="-10"/>
      <point x="346" y="94"/>
      <point x="346" y="223" type="curve" smooth="yes"/>
      <point x="346" y="356"/>
      <point x="269" y="403"/>
      <point x="269" y="467" type="curve" smooth="yes"/>
      <point x="269" y="497"/>
      <point x="287" y="513"/>
      <point x="317" y="513" type="curve" smooth="yes"/>
      <point x="347" y="513"/>
      <point x="374" y="492"/>
      <point x="393" y="401" type="curve"/>
      <point x="576" y="482" type="line"/>
      <point x="553" y="608"/>
      <point x="464" y="670"/>
      <point x="315" y="670" type="curve" smooth="yes"/>
    </contour>
  </outline>
</glyph>
